<svg xmlns="http://www.w3.org/2000/svg" width="155" height="30">
      <defs>
        <linearGradient id="gradient-94911145" x1="0" x2="0" y1="1" y2="0">
            <stop offset="10%" stop-color="#9be9a8"/>
            <stop offset="33%" stop-color="#40c463"/>
            <stop offset="66%" stop-color="#30a14e"/>
            <stop offset="90%" stop-color="#216e39"/>
        </linearGradient>
        <mask id="sparkline-94911145" x="0" y="0" width="155" height="28">
          <polyline transform="translate(0, 28) scale(1,-1)" points="0,17.38 3,14.74 6,20.02 9,16.85 12,24.77 15,17.91 18,9.45 21,5.75 24,5.23 27,16.85 30,6.28 33,7.87 36,7.87 39,6.28 42,4.17 45,1.53 48,14.21 51,13.15 54,6.28 57,12.62 60,8.92 63,19.49 66,25.3 69,25.83 72,11.04 75,15.26 78,17.91 81,2.06 84,9.98 87,26.89 90,25.3 93,29.0 96,6.28 99,17.38 102,11.57 105,6.81 108,5.23 111,3.64 114,15.79 117,17.38 120,12.62 123,14.21 126,9.45 129,12.09 132,10.51 135,8.4 138,2.58 141,4.7 144,14.74 147,9.45 150,12.09 153,8.92 " fill="transparent" stroke="#8cc665" stroke-width="2">
        </polyline></mask>
      </defs>

      <g transform="translate(0, 2.0)">
        <rect x="0" y="-2" width="155" height="30" style="stroke: none; fill: url(#gradient-94911145); mask: url(#sparkline-94911145)"/>
      </g>
    </svg>