<svg xmlns="http://www.w3.org/2000/svg" width="155" height="30">
      <defs>
        <linearGradient id="gradient-15062869" x1="0" x2="0" y1="1" y2="0">
            <stop offset="10%" stop-color="#9be9a8"/>
            <stop offset="33%" stop-color="#40c463"/>
            <stop offset="66%" stop-color="#30a14e"/>
            <stop offset="90%" stop-color="#216e39"/>
        </linearGradient>
        <mask id="sparkline-15062869" x="0" y="0" width="155" height="28">
          <polyline transform="translate(0, 28) scale(1,-1)" points="0,3.71 3,7.32 6,8.68 9,9.13 12,3.26 15,5.97 18,2.81 21,4.609999999999999 24,2.81 27,1.0 30,3.71 33,4.609999999999999 36,9.58 39,5.52 42,6.87 45,12.29 48,5.97 51,2.81 54,1.9 57,2.35 60,1.0 63,11.39 66,10.48 69,7.77 72,7.32 75,13.19 78,29.0 81,19.97 84,3.26 87,2.35 90,2.35 93,2.35 96,1.45 99,2.81 102,5.52 105,6.42 108,8.68 111,3.26 114,3.26 117,13.65 120,4.16 123,8.68 126,5.97 129,3.26 132,1.45 135,3.26 138,5.97 141,1.45 144,3.26 147,11.84 150,8.68 153,12.74 " fill="transparent" stroke="#8cc665" stroke-width="2">
        </polyline></mask>
      </defs>

      <g transform="translate(0, 2.0)">
        <rect x="0" y="-2" width="155" height="30" style="stroke: none; fill: url(#gradient-15062869); mask: url(#sparkline-15062869)"/>
      </g>
    </svg>