<svg xmlns="http://www.w3.org/2000/svg" width="155" height="30">
      <defs>
        <linearGradient id="gradient-63537249" x1="0" x2="0" y1="1" y2="0">
            <stop offset="10%" stop-color="#9be9a8"/>
            <stop offset="33%" stop-color="#40c463"/>
            <stop offset="66%" stop-color="#30a14e"/>
            <stop offset="90%" stop-color="#216e39"/>
        </linearGradient>
        <mask id="sparkline-63537249" x="0" y="0" width="155" height="28">
          <polyline transform="translate(0, 28) scale(1,-1)" points="0,9 3,9 6,7 9,7 12,10 15,8 18,12 21,7 24,1 27,2 30,1 33,4 36,4 39,26 42,7 45,7 48,5 51,3 54,3 57,3 60,4 63,3 66,6 69,6 72,2 75,1 78,3 81,22 84,2 87,1 90,5 93,4 96,5 99,6 102,3 105,2 108,1 111,2 114,5 117,8 120,11 123,5 126,2 129,3 132,1 135,2 138,14 141,1 144,3 147,1 150,4 153,22 " fill="transparent" stroke="#8cc665" stroke-width="2">
        </polyline></mask>
      </defs>

      <g transform="translate(0, 0)">
        <rect x="0" y="-2" width="155" height="30" style="stroke: none; fill: url(#gradient-63537249); mask: url(#sparkline-63537249)"/>
      </g>
    </svg>