<?xml version="1.0" encoding="utf-8"?>
<!-- Generator: Adobe Illustrator 19.2.1, SVG Export Plug-In . SVG Version: 6.00 Build 0)  -->
<svg version="1.1" id="Layer_1" xmlns="http://www.w3.org/2000/svg" xmlns:xlink="http://www.w3.org/1999/xlink" x="0px" y="0px"
	 viewBox="0 0 768 246" style="enable-background:new 0 0 768 246;" xml:space="preserve">
<style type="text/css">
	.st0{fill:#1E3147;}
	.st1{fill:#4967A9;}
	.st2{fill:#00CEFF;}
</style>
<g>
	<g>
		<path class="st0" d="M296.8,109.7V48.5h31v6.4h-23.1v21.3h21.1v6.4h-21.1v27H296.8z"/>
		<path class="st0" d="M367.3,109.7h-6.5l-0.5-3.8c-2.6,2-8.8,4.7-14.5,4.7c-9.7,0-13.6-5.7-13.6-14.2c0-9,4.5-13.7,14.2-13.7
			c5.7,0,10.8,1.5,13.2,2.6v-7c0-5.9-1.8-8.4-8.6-8.4c-4,0-8.1,0.6-12.1,1.7l-1.2-6.3c4-1.3,9.5-2.1,14.2-2.1
			c10.6,0,15.5,4.6,15.5,14.6V109.7z M359.5,90.5c-2.6-0.8-7.5-1.9-12.1-1.9c-6.2,0-7.7,2.9-7.7,8c0,5.6,1.8,8.3,7.2,8.3
			c5.5,0,10.1-2.1,12.7-3.9V90.5z"/>
		<path class="st0" d="M406.6,65.1l-1,6c-2.5-0.8-6.5-1.7-9.7-1.7c-10.3,0-11.1,6.7-11.1,17.5c0,10.8,0.8,17.5,11.1,17.5
			c3.1,0,7.2-0.8,9.7-1.7l1,6c-2.6,1-6.8,1.9-10.8,1.9c-14.9,0-18.7-9.7-18.7-23.7c0-14.1,3.8-23.7,18.7-23.7
			C399.8,63.2,404,64.1,406.6,65.1z"/>
		<path class="st0" d="M421.5,90.3c0.5,9.7,2.8,14.2,12.1,14.2c4.9,0,9.9-1.2,13.4-2.6l1.2,5.9c-3.8,1.6-9.7,2.8-14.7,2.8
			c-16.5,0-19.8-11.2-19.8-24c0-13.1,4.3-23.4,18.3-23.4c12.4,0,17.6,8.7,17.6,19.7v7.4H421.5z M421.5,84.3h20.7v-1.7
			c0-8.5-2.7-13.6-10.2-13.6C423.4,69,421.6,75.2,421.5,84.3z"/>
		<path class="st0" d="M480.2,110.6c-5.2,0-10-2.5-12.5-5.5l-0.6,4.6h-6.5V44.8h7.7v23c2.2-2.3,6.6-4.7,11.4-4.7
			c12.9,0,17.5,9.6,17.5,23.8C497.1,100.3,493.2,110.6,480.2,110.6z M468.2,99.9c3.5,3,7.3,4.5,10.8,4.5c8.7,0,10.4-6.8,10.4-17.4
			c0-10.1-1.9-17.7-10.8-17.7c-4.7,0-7.6,1.8-10.4,4V99.9z"/>
		<path class="st0" d="M524.2,110.6c-13.2,0-19.2-9.9-19.2-23.7c0-13.8,6-23.7,19.2-23.7c13.2,0,19.2,9.9,19.2,23.7
			C543.4,100.7,537.4,110.6,524.2,110.6z M524.2,69.5c-9.6,0-11.5,7.8-11.5,17.5c0,9.7,1.9,17.5,11.5,17.5c9.6,0,11.5-7.8,11.5-17.5
			C535.7,77.3,533.8,69.5,524.2,69.5z"/>
		<path class="st0" d="M570.4,110.6c-13.2,0-19.2-9.9-19.2-23.7c0-13.8,6-23.7,19.2-23.7c13.2,0,19.2,9.9,19.2,23.7
			C589.6,100.7,583.6,110.6,570.4,110.6z M570.4,69.5c-9.6,0-11.5,7.8-11.5,17.5c0,9.7,1.9,17.5,11.5,17.5c9.6,0,11.5-7.8,11.5-17.5
			C581.9,77.3,579.9,69.5,570.4,69.5z"/>
		<path class="st0" d="M600.3,109.7V44.8h7.7v40.4L624,64.1h9l-17.5,22.5l18.2,23.1h-9.1l-16.6-21.6v21.6H600.3z"/>
		<path class="st0" d="M293.2,166.6c0-18.6,6.2-31.7,23.7-31.7c17.6,0,23.7,13.1,23.7,31.7c0,18.6-6.2,31.7-23.7,31.7
			C299.3,198.3,293.2,185.2,293.2,166.6z M316.9,141.3c-13.1,0-15.8,9.8-15.8,25.3c0,15.4,2.8,25.3,15.8,25.3s15.8-9.8,15.8-25.3
			C332.7,151.2,329.9,141.3,316.9,141.3z"/>
		<path class="st0" d="M371.2,198.3c-4.8,0-9.2-1.9-11.4-3.8v19.3h-7.7v-62.2h6.5l0.6,4.6c2.1-2.9,7.1-5.5,12.5-5.5
			c13.4,0,16.9,10.8,16.9,23.7C388.7,188.8,383.9,198.3,371.2,198.3z M359.8,188.4c2.3,1.8,6,3.6,10.3,3.6c8.9,0,10.8-7,10.8-17.7
			c0-10.7-1.7-17.4-10.3-17.4c-4.6,0-8.3,2.2-10.8,4.5V188.4z"/>
		<path class="st0" d="M404.1,177.8c0.5,9.7,2.8,14.2,12.1,14.2c4.9,0,9.9-1.2,13.4-2.6l1.2,5.9c-3.8,1.6-9.7,2.8-14.7,2.8
			c-16.5,0-19.8-11.2-19.8-24c0-13.1,4.3-23.4,18.3-23.4c12.4,0,17.6,8.7,17.6,19.7v7.4H404.1z M404.1,171.8h20.7v-1.7
			c0-8.5-2.7-13.6-10.2-13.6C406.1,156.5,404.2,162.7,404.1,171.8z"/>
		<path class="st0" d="M470,197.2v-33.2c0-4.1-1.7-6.3-6.3-6.3c-4.8,0-9.6,1.6-12.9,3v36.4h-7.7v-45.6h6.3l0.6,4
			c3.7-2.5,9.5-5,15.6-5c7.8,0,12,4.4,12,12.5v34H470z"/>
		<path class="st0" d="M525.4,198.3c-5.1,0-13-1.3-16.9-3.2l1.3-6.3c4,1.7,9.6,3.2,15.4,3.2c8.6,0,12.6-3,12.6-10
			c0-7.3-3.3-9.7-12.8-12.5c-11.2-3.4-16.9-7.1-16.9-17.7c0-11.5,6-16.9,19.1-16.9c5.6,0,10.8,1,14.8,2.7l-1.3,6.2
			c-3.7-1.3-8.5-2.5-13.2-2.5c-9.1,0-11.6,3.1-11.6,10.1c0,7.2,2.3,8.2,10.9,11.1c11.4,3.9,18.8,6.7,18.8,18.5
			C545.6,192.8,537.6,198.3,525.4,198.3z"/>
		<path class="st0" d="M572.3,198.2c-13.2,0-19.2-9.9-19.2-23.7c0-13.8,6-23.7,19.2-23.7c13.2,0,19.2,9.9,19.2,23.7
			C591.5,188.2,585.6,198.2,572.3,198.2z M572.3,157c-9.6,0-11.5,7.8-11.5,17.5c0,9.7,1.9,17.5,11.5,17.5c9.6,0,11.5-7.8,11.5-17.5
			C583.8,164.8,581.9,157,572.3,157z"/>
		<path class="st0" d="M609.5,151.6v33.2c0,4.1,1.7,6.3,6.3,6.3c4.6,0,9.3-1.6,12.5-3v-36.4h7.7v45.6h-6.3l-0.6-4
			c-3.6,2.5-9.3,5-15.3,5c-7.8,0-12-4.4-12-12.5v-34H609.5z"/>
		<path class="st0" d="M671.8,158.1c-5.2,1-10.4,2.8-14.3,4.8v34.4h-7.7v-45.6h6.3l0.8,5.3c2.8-2.8,7.8-5.4,13.8-6L671.8,158.1z"/>
		<path class="st0" d="M705.7,152.7l-1,6c-2.5-0.8-6.5-1.7-9.7-1.7c-10.3,0-11.1,6.7-11.1,17.5c0,10.8,0.8,17.5,11.1,17.5
			c3.1,0,7.2-0.8,9.7-1.7l1,6c-2.6,1-6.8,1.9-10.8,1.9c-14.9,0-18.7-9.7-18.7-23.7c0-14.1,3.8-23.7,18.7-23.7
			C698.9,150.7,703.1,151.6,705.7,152.7z"/>
		<path class="st0" d="M720.6,177.8c0.5,9.7,2.8,14.2,12.1,14.2c4.9,0,9.9-1.2,13.4-2.6l1.2,5.9c-3.8,1.6-9.7,2.8-14.7,2.8
			c-16.5,0-19.8-11.2-19.8-24c0-13.1,4.3-23.4,18.3-23.4c12.4,0,17.6,8.7,17.6,19.7v7.4H720.6z M720.6,171.8h20.7v-1.7
			c0-8.5-2.7-13.6-10.2-13.6C722.5,156.5,720.7,162.7,720.6,171.8z"/>
	</g>
	<g>
		<g>
			<g>
				<g>
					<path class="st0" d="M122.6,240.1L21.7,181.8l0-116.5L122.6,7l100.9,58.3l0,116.5L122.6,240.1z M32.3,175.7l90.3,52.2
						l90.3-52.2V71.4l-90.3-52.2L32.3,71.4L32.3,175.7z"/>
				</g>
			</g>
			<g>
				<g>
					<path class="st1" d="M122.6,191.3c-5.1,0-10-1.2-13.8-3.4l-35.2-20.3c-7.7-4.5-13.8-14.9-13.8-23.8v-40.6
						c0-8.9,6-19.4,13.8-23.8l35.2-20.3c3.7-2.2,8.6-3.4,13.8-3.4s10,1.2,13.8,3.4l35.2,20.3c7.7,4.5,13.8,14.9,13.8,23.8v40.6
						c0,8.9-6,19.4-13.8,23.8l-35.2,20.3C132.6,190.1,127.7,191.3,122.6,191.3z M122.6,66.3c-3.2,0-6.3,0.7-8.5,1.9L79,88.6
						c-4.5,2.6-8.5,9.5-8.5,14.7v40.6c0,5.2,4,12.1,8.5,14.7l35.2,20.3c4.3,2.5,12.7,2.5,16.9,0l35.2-20.3c4.5-2.6,8.5-9.5,8.5-14.7
						v-40.6c0-5.2-4-12.1-8.5-14.7L131,68.3C128.9,67,125.8,66.3,122.6,66.3z"/>
				</g>
			</g>
			<g>
				<g>
					<path class="st2" d="M122.6,151.4c-15.3,0-27.8-12.5-27.8-27.8s12.5-27.8,27.8-27.8s27.8,12.5,27.8,27.8
						S137.9,151.4,122.6,151.4z M122.6,106.3c-9.5,0-17.2,7.7-17.2,17.2s7.7,17.2,17.2,17.2s17.2-7.7,17.2-17.2
						S132.1,106.3,122.6,106.3z"/>
				</g>
			</g>
		</g>
	</g>
</g>
</svg>
